<?xml version="1.0" standalone="no"?>
<!DOCTYPE svg PUBLIC "-//W3C//DTD SVG 20010904//EN"
 "http://www.w3.org/TR/2001/REC-SVG-20010904/DTD/svg10.dtd">
<svg version="1.0" xmlns="http://www.w3.org/2000/svg"
 width="200.000000pt" height="102.000000pt" viewBox="0 0 200.000000 102.000000"
 preserveAspectRatio="xMidYMid meet">

<g transform="translate(0.000000,102.000000) scale(0.100000,-0.100000)"
fill="#000000" stroke="none">
<path d="M30 990 c0 -5 12 -10 28 -10 43 0 76 -23 89 -60 16 -46 18 -727 2
-800 -12 -57 -37 -80 -86 -80 -17 0 -35 -4 -38 -10 -4 -7 60 -10 185 -10 125
0 189 3 185 10 -3 5 -21 10 -40 10 -34 0 -56 15 -77 53 -8 14 -14 92 -16 215
l-4 193 28 -7 c85 -19 149 -81 271 -259 83 -121 134 -179 175 -201 20 -10 66
-14 170 -14 l143 0 89 288 c48 158 91 290 95 294 3 4 51 -125 105 -288 l98
-295 46 3 45 3 79 250 c213 677 220 692 327 703 28 2 48 8 45 13 -8 13 -334
12 -334 -1 0 -5 11 -10 24 -10 38 0 74 -17 80 -38 4 -11 0 -52 -8 -91 -17 -80
-218 -731 -226 -731 -8 0 -251 737 -257 780 -7 52 16 80 64 80 18 0 33 5 33
10 0 6 -68 10 -185 10 -117 0 -185 -4 -185 -10 0 -5 15 -10 33 -10 73 0 110
-48 172 -225 l28 -80 -88 -278 c-49 -152 -91 -277 -94 -277 -9 0 -262 782
-261 806 0 30 19 43 73 50 26 4 44 11 41 15 -8 13 -384 12 -384 -1 0 -5 16
-10 36 -10 55 0 74 -15 74 -58 0 -115 -202 -360 -328 -397 l-22 -6 0 148 c0
250 21 313 102 313 21 0 38 5 38 10 0 6 -68 10 -185 10 -117 0 -185 -4 -185
-10z m786 -553 l133 -399 -36 5 c-75 13 -122 54 -216 192 -48 72 -109 152
-135 179 -48 49 -129 96 -169 96 -40 0 -33 17 22 59 63 48 139 136 203 235 38
60 46 67 54 52 6 -10 70 -199 144 -419z"/>
</g>
</svg>
